<?xml version="1.0" standalone="no"?>
<!DOCTYPE svg PUBLIC "-//W3C//DTD SVG 1.1//EN" "http://www.w3.org/Graphics/SVG/1.1/DTD/svg11.dtd" >
<!--
2013-9-30: Created.
-->
<svg>
<metadata>
Created by iconfont
</metadata>
<defs>

<font id="iconfont" horiz-adv-x="1024" >
  <font-face
    font-family="iconfont"
    font-weight="500"
    font-stretch="normal"
    units-per-em="1024"
    ascent="896"
    descent="-128"
  />
    <missing-glyph />
    
    <glyph glyph-name="x" unicode="x" horiz-adv-x="1001"
d="M281 543q-27 -1 -53 -1h-83q-18 0 -36.5 -6t-32.5 -18.5t-23 -32t-9 -45.5v-76h912v41q0 16 -0.5 30t-0.5 18q0 13 -5 29t-17 29.5t-31.5 22.5t-49.5 9h-133v-97h-438v97zM955 310v-52q0 -23 0.5 -52t0.5 -58t-10.5 -47.5t-26 -30t-33 -16t-31.5 -4.5q-14 -1 -29.5 -0.5
t-29.5 0.5h-32l-45 128h-439l-44 -128h-29h-34q-20 0 -45 1q-25 0 -41 9.5t-25.5 23t-13.5 29.5t-4 30v167h911zM163 247q-12 0 -21 -8.5t-9 -21.5t9 -21.5t21 -8.5q13 0 22 8.5t9 21.5t-9 21.5t-22 8.5zM316 123q-8 -26 -14 -48q-5 -19 -10.5 -37t-7.5 -25t-3 -15t1 -14.5
t9.5 -10.5t21.5 -4h37h67h81h80h64h36q23 0 34 12t2 38q-5 13 -9.5 30.5t-9.5 34.5q-5 19 -11 39h-368zM336 498v228q0 11 2.5 23t10 21.5t20.5 15.5t34 6h188q31 0 51.5 -14.5t20.5 -52.5v-227h-327z" />
    

    
    <glyph glyph-name="jiahao" unicode="&#58882;" d="M745.9988 346.3016H545.1387466184041V547.1544292969367c0 16.5568-13.4234 29.9797-29.9809 29.9797-16.5585 0-29.9809-13.4229-29.9809-29.9797v-200.8528217868285H284.31489141416915c-16.5575 0-29.9809-13.4229-29.9809-29.9797s13.4234-29.9797 29.9809-29.9797h200.86105151018802v-200.85182246436915c0-16.5568 13.4234-29.9797 29.9809-29.9797 16.5575 0 29.9809 13.4229 29.9809 29.9797V286.34225994775545h200.8600521467825c16.5575 0 29.9809 13.4229 29.9809 29.9797S762.5563 346.3016 745.9988 346.3016z"  horiz-adv-x="1000" />

    
    <glyph glyph-name="fanhui" unicode="&#58881;" d="M624.788992 691.952026 585.205965 731.535974 219.560038 365.814989 585.205965 0.135987 624.788992 39.719014 298.663014 365.83895Z"  horiz-adv-x="1024" />

    
    <glyph glyph-name="shezhi" unicode="&#58977;" d="M575.620018 409.99109c-61.170634 34.845623-139.388202 14.164604-174.694735-46.195112-35.323931-60.35767-14.359621-137.542586 46.812037-172.390255 61.172681-34.860972 139.387178-14.163581 174.709062 46.192042C657.757009 297.958504 636.791676 375.128071 575.620018 409.99109zM594.491581 253.520409c-26.411592-45.115524-84.896961-60.57154-130.631412-34.516118-45.733428 26.048259-61.407028 83.743286-34.995436 128.857786 26.395218 45.12985 84.882634 60.58996 130.633458 34.534538C605.230596 356.345286 620.903173 298.649236 594.491581 253.520409zM887.803621 374.353428c0.097218-0.020466 0.192389-0.041956 0.289608-0.061398l-6.363179 26.699082-1.900357 6.602372c-34.912545 10.390651-61.324137 31.390941-77.550344 59.113329-16.225185 27.722388-21.92114 67.89432-13.087599 96.14985l-13.938001 12.534478c-3.605255 3.368724-7.276005 6.67298-11.013273 9.903557l-1.057119 0.950651c-0.004093-0.011256-0.007163-0.022513-0.011257-0.034792-36.971521 31.728632-80.152719 56.597019-127.523504 72.561619 0.004093 0.005117 0.00921 0.00921 0.013304 0.014326l-0.537258 0.159636c-8.428295 2.827395-16.987579 5.375427-25.667618 7.628748l-0.415479 0.12382-0.827889 0.205685c-0.230253 0.059352-0.456413 0.12382-0.685643 0.182149l0-0.011256-5.230332 1.301645c-26.580444-24.632004-58.224415-36.694737-90.672737-36.694737-32.450369 0-70.567017 15.22168-90.956205 36.893258l-5.579294-1.656733c-9.466994-2.422166-18.788672-5.200442-27.956847-8.303106l-0.401152-0.118704c0.00307-0.00307 0.00614-0.007163 0.010233-0.011256-47.341108-16.07921-90.480348-41.055045-127.386375-72.887031l-0.00921 0.026606-0.673363-0.61296c-4.61223-3.997034-9.125195-8.101515-13.537872-12.30935l-6.140089-5.583159-4.845553-4.924149c8.334147-35.021631 3.103815-68.084655-13.122393-95.80602-16.224161-27.721365-48.6469-52.674687-77.868606-59.256592l-1.976085-8.41874c-2.216572-8.173147-4.16298-16.454764-5.830014-24.835641l-0.182156-0.776689c0.00921 0.002047 0.01842 0.004093 0.02763 0.00614-4.608137-23.428595-7.038588-47.623647-7.038588-72.381517 0-25.059745 2.491853-49.54337 7.210511-73.239048-0.002047 0-0.004093 0.001023-0.00614 0.001023l0.03377-0.143263c1.853283-9.28548 4.037108-18.454304 6.563755-27.482935l0.02763 0.016373 1.63838-5.691629c34.913568-10.389628 61.32516-31.388894 77.550344-59.110259 16.225185-27.725458 21.920117-67.896366 13.087599-96.15292l6.94137-6.349615c40.812147-40.047088 90.705485-71.092152 146.375623-89.858564l-0.013304-0.01535 0.509627-0.152473c7.655667-2.569522 15.420833-4.904707 23.285263-7.001461l2.762017-0.830925 6.745911-1.678222c26.580444 24.63098 58.221345 36.694737 90.673761 36.694737 32.450369 0 70.565993-15.220656 90.956205-36.895305l6.591385 1.969864c67.061026 17.33276 126.939172 52.139497 174.374427 99.172697l0.621172 0.571005 4.843507 4.925173c-8.333124 35.022655-3.102792 68.082608 13.123416 95.80602 16.225185 27.724435 48.644853 52.673663 77.869629 59.257615l1.281232 5.370311 0.085961-0.049119c8.984997 32.112372 13.801896 65.931618 13.801896 100.864222C895.091906 325.924439 892.572423 350.538023 887.803621 374.353428zM853.321906 218.122201c-30.951164-12.71458-59.831072-34.517141-78.902187-67.101257-19.265552-32.918737-23.899272-67.131957-19.089536-100.298334-40.519469-38.391379-90.336056-67.312058-145.805618-83.127256-26.559977 19.958564-59.981504 33.615609-97.98149 33.615609-38.444119 0-70.75429-13.106506-97.441162-33.725102-55.417371 15.734356-105.205304 44.548612-145.73603 82.817194 4.235638 32.659841-0.535211 68.006883-19.560276 100.516298-19.277832 32.937157-47.095504 54.022381-78.681144 66.5016-6.695767 26.719548-10.266228 54.651714-10.266228 83.408665 0 28.566616 3.520318 56.319703 10.1291 82.876546 30.86725 12.720719 59.627425 34.509978 78.669887 67.048045 19.227688 32.852222 23.907459 66.918086 19.160147 99.980086 40.507189 38.403658 90.310472 67.347874 145.773894 83.182514 26.584538-19.950378 60.049045-33.607422 98.032657-33.607422 38.436956 0 70.773733 13.139252 97.473909 33.769105 55.482865-15.741519 105.321966-44.598754 145.884416-82.920548-4.167074-32.522718 0.67541-67.641563 19.666704-100.089579 19.213361-32.828686 46.912325-53.884234 78.368-66.379826 6.767401-26.854625 10.374703-54.940286 10.374703-83.859943C863.390628 272.259192 859.888731 244.598202 853.321906 218.122201z"  horiz-adv-x="1024" />

    
    <glyph glyph-name="shouc01" unicode="&#58911;" d="M954.742125 382.731236l-316.211848 45.952588L497.114476 715.222863 339.211167 409.6227c8.023744-8.023744 16.047488-16.067954 24.077372-24.090675l133.824915 256.82018 119.994931-243.147786 268.336468-38.980803-194.162118-189.272761 45.826721-267.25688L497.114476 29.874793 257.106194-96.305001l45.832861 267.25688L108.770797 360.223616l148.196227 19.500123c-9.473769 9.493212-18.968004 18.974144-28.455075 28.461215L39.473525 382.731236l228.823546-223.050052-54.022381-314.932716 282.839787 148.700717L779.9471-155.251531l-54.027497 314.932716L954.742125 382.731236z"  horiz-adv-x="1024" />

    
    <glyph glyph-name="yijianfankui" unicode="&#58994;" d="M860.096023 383.251076c-10.521634 0-19.051915-8.514931-19.114336-19.018146l0-339.193259c0-21.126156-17.125029-38.229696-38.22765-38.229696L229.219565-13.190025c-21.10262 0-38.22765 17.10354-38.22765 38.229696L190.991915 578.403754c0 21.126156 17.125029 38.22765 38.22765 38.22765l369.394095 0c10.544147 0.016373 19.09694 8.570189 19.09694 19.114336 0 10.56052-8.552793 19.114336-19.09694 19.114336L225.39854 654.860077c-40.122813 0-72.635297-32.514531-72.635297-72.635297l0-561.006134c0-40.125883 32.514531-72.640414 72.635297-72.640414l581.177546 0c40.122813 0 72.635297 32.518624 72.635297 72.640414L879.211383 364.233953C879.154078 374.737168 870.618681 383.251076 860.096023 383.251076L860.096023 383.251076 860.096023 383.251076zM504.732479 138.313527l363.679953 363.645161c21.633716 21.621437 19.644409 58.846246-4.456498 82.904175l-34.346249 34.390251c-24.078395 24.100908-61.287855 26.107611-82.925664 4.491291L383.005091 260.024543l121.728412-121.709993L504.732479 138.313527zM773.779122 596.587905c8.220219 8.198729 22.325471 7.453762 31.474852-1.675152l34.363645-34.366715c9.123798-9.185196 9.894348-23.273053 1.674129-31.449269l-40.358173-40.358173-66.979484 68.027349L773.779122 596.587905 773.779122 596.587905zM772.381285 460.185282 501.993089 189.75513l-67.535139 67.512626 270.944875 270.940782 66.979484-68.02121L772.382309 460.185282zM382.829082 259.334835l-37.382399-136.985908c-1.63422-5.990434 0.078795-12.334933 4.411473-16.752546 4.3951-4.333702 10.763135-6.025227 16.730033-4.412496l136.999211 37.360909-28.040636 28.092825-88.954985-24.306592 24.258497 89.00308L382.829082 259.334835 382.829082 259.334835z"  horiz-adv-x="1024" />

    
    <glyph glyph-name="xiaoxi" unicode="&#58887;" d="M587.182306 670.7203c-6.003737 2.705622-13.043061 1.642406-17.984606-2.721994l-259.223926-229.293243-148.246369 0c-9.253758 0-16.752546-7.498788-16.752546-16.756639l0-267.886213c0-9.249665 7.498788-16.756639 16.752546-16.756639l144.050814 0c9.253758 0 16.752546 7.506974 16.752546 16.756639L322.530764 406.391099c1.774413 0.704035 3.433192 1.719154 4.892427 3.010567l236.127905 208.861912 0-653.332912-160.751171 137.64287c-2.12643 1.824555-90.300632 78.69941-93.927229 76.162634-4.427846-3.097548-15.768125-17.59882-18.419512-22.512736-0.953721-1.768273-2.196015-1.334391 15.413038-16.379039 25.674753-21.936615 73.780377-61.548798 75.144444-62.717414l10.007935-8.570189 178.388876-152.761196c3.093455-2.653433 6.978948-4.028757 10.900258-4.028757 2.369977 0 4.756327 0.503467 7.003508 1.534959 5.939269 2.738367 9.749038 8.677637 9.749038 15.217586L597.060281 655.446431C597.060281 662.034477 593.190137 668.013655 587.182306 670.7203L587.182306 670.7203zM290.453185 170.814756l-115.040083 0L175.413102 405.195877l115.03906 0 0-234.381122L290.453185 170.814756zM747.742119 291.984443c0-51.55212-34.83232-96.658434-84.702124-109.693308-1.415232-0.375553-2.846838-0.551562-4.245697-0.551562-7.438413 0-14.234189 4.992711-16.200984 12.523221-2.338255 8.949836 3.021823 18.104333 11.967566 20.442588 35.136242 9.18929 59.672054 40.96397 59.672054 77.279061 0 36.307927-24.535813 68.090794-59.672054 77.271898-8.945743 2.346441-14.305821 11.492752-11.967566 20.450774 2.342348 8.953929 11.499915 14.305821 20.446681 11.967566C712.909799 388.643899 747.742119 343.530422 747.742119 291.984443L747.742119 291.984443zM864.950588 291.793084c0-88.87619-48.554856-170.44495-126.718053-212.883505-2.537799-1.375324-5.276167-2.02717-7.982812-2.02717-5.939269 0-11.69946 3.166109-14.733563 8.762571-4.417613 8.134261-1.39886 18.303878 6.727215 22.720468 67.350944 36.566824 109.198028 106.851587 109.198028 183.427636 0 76.844156-42.055838 147.272181-109.741403 183.78784-8.154727 4.396123-11.192923 14.557554-6.795776 22.700001 4.38896 8.142447 14.558577 11.184737 22.701025 6.795776C816.151162 462.697499 864.950588 380.976266 864.950588 291.793084L864.950588 291.793084z"  horiz-adv-x="1024" />

    
    <glyph glyph-name="wode" unicode="&#58918;" d="M720.838376 469.548534c0 119.91102-97.55485 217.464847-217.464847 217.464847s-217.464847-97.55485-217.464847-217.464847 97.55485-217.464847 217.464847-217.464847S720.838376 349.637514 720.838376 469.548534zM503.373529 303.248997c-91.697445 0-166.299537 74.602092-166.299537 166.299537S411.67506 635.848071 503.373529 635.848071c91.698468 0 166.299537-74.602092 166.299537-166.299537S595.071997 303.248997 503.373529 303.248997zM364.573299 236.860984c-2.137687-1.003863-52.9387-25.216311-103.660918-78.778204-29.840632-31.511691-53.640688-66.808592-70.740134-104.911398-21.3871-47.656393-32.232099-99.686397-32.232099-154.642033 0-14.128789 11.453866-25.582655 25.582655-25.582655s25.582655 11.453866 25.582655 25.582655c0 47.260373 9.169847 91.871407 27.255761 132.593877 14.519692 32.69361 34.833343 63.099107 60.376089 90.37124 43.878346 46.849004 88.649016 68.603471 89.635483 69.078285 12.757558 6.022157 18.235316 21.239743 12.233626 34.012651C392.59654 237.373661 377.35951 242.868815 364.573299 236.860984zM816.575834 50.947737c-17.099447 38.102806-40.900525 73.40073-70.740134 104.911398-50.721195 53.562916-101.523231 77.774341-103.660918 78.778204-12.792351 6.010901-28.025287 0.5137-34.034141-12.274558-6.007831-12.788258-0.512676-28.025287 12.275581-34.034141 0.435928-0.204661 44.118823-21.028942 88.267323-67.649749 25.877367-27.326369 46.471404-57.836243 61.211107-90.679255 18.410302-41.026392 27.745924-86.007863 27.745924-133.693932 0-14.128789 11.453866-25.582655 25.582655-25.582655s25.582655 11.453866 25.582655 25.582655C848.806909-48.738659 837.96191 3.291344 816.575834 50.947737z"  horiz-adv-x="1024" />

    
    <glyph glyph-name="pinglun" unicode="&#58925;" d="M507.809561 8.611513c-23.568788 0-46.530756 2.128477-68.876694 5.821589l-161.41325-97.94166L277.519618 79.538913c-84.165912 59.096956-138.173966 149.70458-138.173966 251.474428 0 178.059372 164.968216 322.401828 368.463909 322.401828 203.483414 0 368.459816-144.346549 368.459816-322.401828C876.269377 152.936573 711.288882 8.611513 507.809561 8.611513L507.809561 8.611513zM507.809561 607.361273c-178.063465 0-322.405921-123.735116-322.405921-276.347932 0-93.64582 54.476729-176.268586 137.601938-226.245837l-1.452071-106.823957 108.407012 65.174372c24.972764-5.327332 50.947346-8.457626 77.850066-8.457626 178.067558 0 322.401828 123.712603 322.401828 276.353049C830.211389 483.627181 685.877119 607.361273 507.809561 607.361273L507.809561 607.361273z"  horiz-adv-x="1024" />

    
    <glyph glyph-name="zan" unicode="&#58897;" d="M857.28 192.544c1.568 23.92-5.872 40.192-12.464 49.712 9.936 11.136 18.768 28.48 19.248 50.528 1.392 63.648-61.104 85.472-98.24 88.304l-1.04 0.144-1.04 0L650.4 381.232l-1.36 0-1.344 0c-0.112 0-0.208 0-0.32 0-2.56 0-3.872 0.304-4.208 0.576-8.56 12.016 1.664 25.584 2.096 26.16 5.68 6.592 39.12 47.616 61.808 110.56 18.592 51.616-9.04 98.96-41.088 126.096l-4.88 4.128-6.208 1.504C650.096 651.408 645.216 652 640.432 652c-8.88 0-17.008-2.048-24.144-6.064-16.016-9.056-25.776-26.848-29.04-52.928-7.696-61.504-35.472-116.624-66.688-139.504-3.648-2.656-6.576-4.832-8.576-6.432-14.784-11.936-26.944-34.384-45.216-69.936l-7.136-13.808c-7.424-14.192-5.568-45.552-55.584-63.328-4.656-1.648-8.976-2.384-12.944-2.384-2.48 0-4.688 0.56-6.912 1.072L384.192 332l-224 0L160-52l224.176 0 0 28.976 20.048-1.904L458.496-52c0 0 132.032 0 169.984 0 50.832 0 95.216 0.08 114.16 0.32 25.04 0.304 43.712 8.288 55.472 23.744 15.376 20.24 16.624 46.72 13.424 63.632 18.416 17.776 24.032 46.576 25.744 63.168 1.664 16.192-3.088 28.784-7.92 37.04C840.944 145.824 855.44 164.32 857.28 192.544zM352.16-20l-160.16 0 0.144 320L352.16 300 352.16-20zM820.944 263.568l-16.8-18.816 14.368-20.736c3.648-5.264 7.792-14.64 6.832-29.392-1.2-18.448-11.04-29.488-16.816-34.432l-20.272-17.392 13.488-23.056c3.104-5.312 4.352-11.248 3.712-17.6-2-19.376-8.032-35.616-16.144-43.424l-12.432-12 3.2-16.976c1.6-8.48 1.824-26.096-7.456-38.32-2.048-2.688-8.256-10.864-30.4-11.12-16.608-0.208-54.88-0.32-113.76-0.32L466.032-20.016l-47.52 23.712-5.344 2.656-5.936 0.56-23.072 2.176L384.16 265.984c2.24-0.24 4.544-0.368 6.912-0.368 7.808 0 15.76 1.424 23.664 4.224 54.816 19.472 66.08 55.824 71.504 73.28 0.624 2 1.472 4.736 1.808 5.504l7.152 13.856c15.376 29.92 27.024 51.728 36.832 59.632 1.712 1.376 4.224 3.216 7.424 5.536 39.696 29.072 70.912 92.4 79.536 161.344 1.328 10.64 4.672 24.336 13.008 29.04C634.32 619.36 637.072 620 640.432 620c1.904 0 3.84-0.208 5.824-0.608 9.936-8.672 46.976-44.88 30.72-90.016-21.792-60.448-54.576-98.928-55.968-100.528l-0.576-0.656-0.528-0.688c-12.56-16.304-18.304-42.496-2.816-64.24l2.56-3.6 3.44-2.768c9.504-7.648 20.608-7.648 24.592-7.648l1.344 0 1.36 0 112.24 0 0.752-0.064c7.136-0.544 69.744-6.704 68.672-55.68C831.712 277.328 824.16 267.184 820.944 263.568z"  horiz-adv-x="1024" />

    
    <glyph glyph-name="sousuo" unicode="&#58926;" d="M507.872494 83.872478c-46.167482 0-90.970898 9.052167-133.167952 26.904767-40.74396 17.237593-77.334319 41.907459-108.754936 73.326029-31.42164 31.417547-56.094576 68.00586-73.335239 108.747773-17.854647 42.195008-26.907836 86.998423-26.907836 133.164882 0 46.191018 9.05319 91.010807 26.907836 133.214001 17.238616 40.749076 41.912575 77.341482 73.335239 108.760053 31.419594 31.4155 68.010977 56.08332 108.756983 73.316819 42.193984 17.84646 86.9974 26.895557 133.165906 26.895557 46.181809 0 90.99341-9.049097 133.189442-26.895557 40.748053-17.2335 77.338413-41.901319 108.754936-73.317843 31.417547-31.417547 56.086389-68.009953 73.319889-108.761076 17.848507-42.201148 26.898627-87.020936 26.898627-133.211954 0-46.167482-9.05012-90.969874-26.898627-133.162836-17.235546-40.742936-41.903366-77.331249-73.319889-108.747773-31.417547-31.419594-68.007907-56.090483-108.75289-73.327052C598.864882 92.924645 554.05328 83.872478 507.872494 83.872478zM507.872494 725.43123c-165.086919 0-299.394834-134.317125-299.394834-299.416324 0-165.073616 134.307915-299.372322 299.394834-299.372322 165.085896 0 299.392788 134.297682 299.392788 299.372322C807.265282 591.114105 672.95839 725.43123 507.872494 725.43123zM747.538445 216.622265l149.694915-149.694915-30.243465-30.243465-149.694915 149.694915 30.243465 30.243465Z"  horiz-adv-x="1024" />

    
    <glyph glyph-name="guanzhu" unicode="&#58888;" d="M892 391q-9 11-23 28.5t-54 56-82 68-102.5 53.5-118.5 24-118.5-24-102.5-53.5-82-68.5-54-56-23-28l-5-7 5-7q9-11 23-28.5t54-56 82-68 102.5-53.5 118.5-24 118.5 24 102.5 53.5 82 68.5 54 56 23 28l5 7zM514 182q-48 0-98.5 18.5t-87.5 42-73 55.5-53.5 50.5-30.5 35.5q13 17 30.5 35.5t53.5 50.5 73 55.5 87.5 42 98.5 18.5 98-18.5 87-42 73.5-55.5 53.5-50.5 30-35.5-30-35.5-53.5-50.5-73.5-55.5-87-42-98-18.5zM514 481q-39 0-67-28.5t-28-68.5 28-68.5 67-28.5 66.5 28.5 27.5 68.5-27.5 68.5-66.5 28.5zM514 322q-25 0-42.5 18.5t-17.5 43.5 17.5 43.5 42 18.5 42-18.5 17.5-43.5q0-17-8-31t-21.5-22.5-29.5-8.5z"  horiz-adv-x="1024" />

    
    <glyph glyph-name="service" unicode="&#59013;" d="M781.443 381.762c0 73.113-29.838 138.777-77.609 186.546-46.25 47.751-111.914 77.605-183.547 77.605-73.112 0-137.299-29.855-185.047-77.605-47.772-47.769-76.108-113.432-76.108-186.546 0-71.632 28.336-137.297 76.108-185.064 47.747-49.249 111.934-77.588 185.047-77.588 71.633 0 137.297 28.339 183.547 77.588 47.77 47.767 77.609 113.431 77.609 185.064M520.286 145.97c-64.166 0-123.878 26.864-165.657 70.14-41.777 41.776-68.659 101.468-68.659 165.653 0 65.665 26.881 125.356 68.659 167.135 41.779 43.276 101.492 70.135 165.657 70.135 64.163 0 122.378-26.86 164.157-70.135 41.779-41.779 68.66-101.47 68.66-167.135 0-64.185-26.881-123.876-68.66-165.653-41.779-43.278-99.992-70.14-164.157-70.14M574.007 253.412c-17.891-7.469-38.783-10.443-58.194-10.443-19.41 1.497-38.804 5.972-56.717 14.918-44.752 22.385-77.584 68.66-77.584 135.821h-28.377c0-79.107 40.302-134.323 92.545-161.183 22.385-10.448 46.25-16.415 70.134-17.913 22.39 0 46.253 4.471 68.638 13.439 52.243 23.865 92.545 76.107 98.496 164.16l-28.339 1.497c-4.493-76.13-38.823-120.886-80.602-140.296M876.657 465.079c-16.622 83.027-61.209 154.217-123.554 203.201-65.665 53.741-147.741 83.578-232.816 85.076-43.279 0-83.556-5.969-120.883-17.914-73.109-23.865-132.822-71.632-174.6-132.821-28.34-40.281-49.227-88.053-59.693-137.302-137.3-11.918-135.803-189.516 13.438-211.906l26.86 8.946c-14.935 41.801-20.887 85.077-20.887 126.854 1.497 73.135 23.882 141.772 62.666 196.993 38.804 56.715 94.020 99.99 161.183 122.378 34.307 11.942 71.636 16.417 111.916 16.417 79.103-1.498 155.21-29.838 214.923-77.605 58.174-46.253 99.972-111.918 114.891-189.522 0 0 64.508-276.213-220.067-387.886-6.073 7.226-14.856 11.801-24.672 11.801-19.415 0-34.331-14.918-34.331-34.307 0-17.914 14.916-32.833 34.331-32.833 16.251 0 29.896 12.328 32.324 27.996 132.762 51.553 196.18 136.102 224.883 216.075 125.901 31.313 128.127 181.564 14.088 206.362z"  horiz-adv-x="1024" />

    
    <glyph glyph-name="xinshoujiaocheng" unicode="&#58993;" d="M512 878.16704C236.7232 878.16704 12.76928 654.21312 12.76928 378.93632s223.95392-499.23072 499.23072-499.23072c275.2768 0 499.23072 223.95392 499.23072 499.23072S787.2768 878.16704 512 878.16704zM512-88.84736c-257.93536 0-467.7888 209.8432-467.7888 467.78368S254.06464 846.72 512 846.72c257.93536 0 467.77856-209.84832 467.77856-467.7888S769.93536-88.84736 512-88.84736zM228.91008 277.36064 494.78144 277.36064 494.78144 140.06272 412.9024 140.06272 412.9024 105.69728 611.13344 105.69728 611.13344 140.06272 529.23904 140.06272 529.23904 277.36064 795.0848 277.36064 795.0848 309.88288 228.91008 309.88288ZM783.49312 578.816c0 40.44288-32.85504 73.36448-73.30304 73.36448L313.78944 652.18048c-40.34048 0-73.28768-32.91648-73.28768-73.36448l0-228.97664 542.99136 0L783.49312 578.816zM750.12608 383.24736l-476.2112 0L273.91488 578.816c0 22.04672 17.87904 39.98208 39.87456 39.98208l396.39552 0c22.01088 0 39.94112-17.92 39.94112-39.98208L750.12608 383.24736z"  horiz-adv-x="1024" />

    
    <glyph glyph-name="xinshourenwu" unicode="&#59113;" d="M516.432962 485.236706c8.371668 0 16.965393 0.254803 25.674753 0.763386 54.94745-93.716428 51.088562-191.680601 51.04149-192.70186l38.059827-1.860371c0.100284 1.951445 0.948605 21.835308-2.660596 51.941999 2.540869 23.100114 50.056046 59.883879 90.994434 84.295871 2.131547-0.102331 5.098111-0.198521 8.801457-0.198521 0 0 0 0 0.024559 0 101.601003 0 215.657688 58.554604 231.16487 222.853577l1.959631 20.841677-20.940938 0c-81.976036 0-144.996348-23.12365-187.298803-68.701708-47.295166-50.993394-54.368258-115.174136-55.038524-143.084812-23.086811-13.760398-56.311517-35.880185-79.782068-61.305251-8.408507 33.494858-22.201651 71.619154-44.747133 109.405759C572.82839 833.576275 285.082874 850.13337 227.334635 850.13337c-9.552563 0-15.010879-0.397043-15.010879-0.397043l-18.21178-1.314948 0.496304-18.21178C194.70754 826.762079 207.783347 485.236706 516.432962 485.236706zM781.465175 576.838983c31.138184 33.395598 77.286224 52.05354 137.378857 55.601342-23.545252-144.747685-135.717008-164.746158-182.13827-166.655647C738.393193 491.166765 746.456846 539.275459 781.465175 576.838983zM535.264866 523.792836c-6.376221-0.297782-12.678764-0.446162-18.831904-0.446162-234.564293 0-275.328719 220.59514-282.300504 288.603047C311.568085 810.535513 525.910824 782.84587 535.264866 523.792836zM967.499172 226.134553c-19.377326 22.031782-41.013089 32.850176-63.814398 31.608905-37.092803-1.661849-61.4567-33.519418-62.623269-35.380812-26.680663-28.41312-75.594699-71.208808-108.935038-82.506109-12.230556 44.740994-40.683585 62.526055-63.178925 69.529563-21.287839 6.649444-40.367383 4.63967-47.016827 3.572362-11.686157 0.148379-78.378092 1.041726-101.601003 1.314948-100.169397 94.570889-199.378933 94.646614-245.505483 87.856977l0 54.162574L37.578874 356.292961l0-377.178385 237.243309 0 0 45.525869c59.426461-31.043017 194.98588-94.825692 305.648258-94.825692 14.539134 0 28.656667 1.116427 42.104957 3.523243 142.465712 25.704428 336.934822 150.677744 345.146854 155.98768l3.324722 2.729158C991.789391 113.442958 1017.741459 168.994158 967.499172 226.134553zM236.713236 17.224546 75.688843 17.224546 75.688843 318.184015l161.024393 0L236.713236 17.224546zM944.920944 119.992117c-21.461801-13.621229-201.76426-126.189004-329.09425-149.139715-114.787326-20.846794-295.121508 72.015174-341.003488 97.06264L274.823206 263.477043c35.120892 6.175653 129.405255 11.272741 224.416166-81.804121l5.557576-5.433756 7.765871 0c5.582135 0 110.608144-1.414209 110.608144-1.414209l2.034333-0.024559 2.009773 0.397043c0.149403 0.050142 14.737656 2.680039 30.4188-2.208295 16.994046-5.28333 28.684296-17.121959 35.468816-35.999912-82.050738-0.24764-287.302425-1.366114-287.302425-1.366114l0.198521-38.109969c0 0 259.523755 1.414209 311.428915 1.414209 58.504462 0 142.093229 87.409792 152.835897 99.070366 4.366448 5.806239 19.178805 21.040199 35.281551 21.684882 10.966773 0.148379 22.031782-5.855358 33.320896-18.707061C974.495516 160.459784 951.422008 127.708869 944.920944 119.992117z"  horiz-adv-x="1024" />

    
    <glyph glyph-name="xinshouyindao" unicode="&#58942;" d="M423.430802-31.164534l26.437116 0c7.070023 0 12.806677 5.715165 12.825097 12.785188 0.103354 40.388872 0.38067 163.230642-0.033769 174.21174-0.497327 13.159718 5.193279 27.579125 10.927887 34.261315 5.2864 6.161327 371.048781 432.401104 428.047959 498.825956 2.015913 2.348488 5.833869 0.49221 5.239328-2.544963-16.185634-82.712817-116.541273-595.571371-117.996414-602.959641-1.217734-6.207375-5.275143-8.852622-10.899234-7.03216-6.049786 1.956561-203.188702 63.387679-246.415202 76.857459-4.621251 1.439792-9.538237-1.093914-11.05273-5.690606l-7.055696-21.413706c-1.547239-4.696975 1.038656-9.749038 5.756097-11.230786 42.511209-13.348006 229.532697-72.049966 250.323209-78.247108 25.822109-7.696286 52.637848 8.937556 58.097186 38.236859 4.50664 24.167422 127.308501 649.176243 129.108496 660.421354 1.801019 11.244089 4.659113 30.754444-6.005784 38.32691-16.790408 11.921517-32.140001 6.690376-37.591153 2.785439-0.564865-0.404206-1.309832-0.456395-1.916653-0.796132l-2.817162-1.579985c0 0-795.908118-424.974971-824.292586-440.286702-28.385491-15.305591-27.128871-47.553039-3.313465-55.282071 21.146623-6.862291 212.986859-69.12638 255.749802-83.005482 4.657067-1.511423 9.649777 1.040702 11.161201 5.697769l6.769171 20.852934c1.514493 4.665253-1.047866 9.674337-5.717212 11.17655l-209.340819 67.348897c-7.448646 2.396583-8.366551 12.56313-1.468444 16.255219l714.650443 382.483204c2.028193 1.085728 4.056386-1.438769 2.558265-3.183506-53.897537-62.789045-391.33378-455.881888-406.409127-473.242278-16.382109-18.869766-25.604144-38.4845-25.570375-63.310931C423.216931 134.72568 423.430802-31.164534 423.430802-31.164534L423.430802-31.164534zM423.430802-31.164534"  horiz-adv-x="1024" />

    
    <glyph glyph-name="huodong" unicode="&#58958;" d="M512.616296 135.039012c-5.092333 0-10.184666 1.896764-14.132013 5.698442L392.693332 242.620784c-18.541837 16.787687-31.105098 37.820173-36.33597 60.842122-4.845815 21.322807-3.318828 43.239499 4.413898 63.385742 14.301113 37.250736 46.378022 60.39187 83.713308 60.39187 20.502777 0 38.445636-9.978894 49.887341-18.350327 5.735114-4.195903 11.097394-8.896048 15.951358-13.944578 4.756172 5.021026 10.022697 9.697741 15.670205 13.877346 11.351043 8.401993 29.198147 18.417559 49.76612 18.417559 37.048021 0 69.248189-22.444363 84.03317-58.575581 8.116765-19.83453 10.09706-41.682971 5.727983-63.184045-4.703201-23.146227-16.723511-44.752224-34.761106-62.484219L526.900091 140.884142C522.939501 136.989766 517.777898 135.039012 512.616296 135.039012zM444.484569 386.492686c-23.980518 0-39.3166-17.692266-45.673102-34.248715-8.316424-21.663043-7.058367-53.943687 21.411431-79.580562 0.169099-0.151782 0.335143-0.307638 0.499148-0.465532l91.748579-88.359463 89.723463 88.213793c27.922772 27.450109 28.581852 59.933468 19.887501 81.179875-8.523215 20.825696-25.839591 33.260605-46.323014 33.260605-15.481751 0-37.880274-16.752033-46.991262-35.147182-3.412546-6.888249-10.410811-11.268531-18.096678-11.328633-0.05399-0.001019-0.10696-0.001019-0.16095-0.001019-7.623729 0-14.615882 4.259061-18.11094 11.044424C482.847693 369.60517 460.010123 386.492686 444.484569 386.492686zM824.06354 23.453865 197.317459 23.453865c-13.844748 0-27.290178 5.820682-36.88809 15.969695-9.198593 9.727283-13.865122 22.23961-13.13881 35.231732l29.685072 533.065083c1.533099 27.439922 23.509892 48.931829 50.033011 48.931829l135.062441 0C368.359336 733.132952 432.611966 793.440272 510.686934 793.440272c39.685358 0 77.096026-15.560189 105.340697-43.815048 25.287472-25.297659 40.399446-57.936874 43.27719-92.973021l135.067535 0c26.527194 0 48.503987-21.492925 50.033011-48.93081l29.685072-533.070177c0.722237-12.938132-3.963646-25.439254-13.191781-35.196078C851.280373 29.286772 837.854298 23.453865 824.06354 23.453865zM227.008643 615.905391c-5.693348 0-9.066166-5.386729-9.349356-10.453595L187.974215 72.384675c-0.12224-2.174861 1.053305-3.89947 2.059751-4.964999 1.906951-2.015949 4.628838-3.218998 7.282474-3.218998l626.746081 0c2.601684 0 5.304216 1.215274 7.231541 3.252614 0.841422 0.890318 2.234963 2.713738 2.111704 4.930364l-29.685072 533.071196c-0.286246 5.136136-3.861779 10.450539-9.350375 10.450539L659.809063 615.905391l0-31.83141c15.357474-7.55344 25.950626-23.364222 25.950626-41.602496 0-25.543158-20.78393-46.323014-46.331163-46.323014-25.543158 0-46.324033 20.779856-46.324033 46.323014 0 18.243367 10.596209 34.057205 25.957757 41.608608l0 31.825298L402.313655 615.905391l0-31.826317c15.359511-7.552422 25.956738-23.36626 25.956738-41.607589 0-25.543158-20.780874-46.323014-46.325051-46.323014-25.550289 0-46.336257 20.779856-46.336257 46.323014 0 18.240311 10.596209 34.052111 25.956738 41.604533l0 31.829373L227.008643 615.905391zM403.010425 656.652204l215.351998 0c-2.754485 24.145543-13.573782 46.579719-31.153994 64.166043-20.54658 20.55473-47.723686 31.875213-76.522514 31.875213C455.098095 752.69346 409.15097 710.625432 403.010425 656.652204z"  horiz-adv-x="1024" />

    
    <glyph glyph-name="shangchuan" unicode="&#58889;" d="M932.206308 529.175644c-41.084993 31.475736-91.63113 45.279108-142.310929 39.574966-2.120539 106.492965-65.397135 203.261074-162.490369 247.799619-35.590376 18.810301-75.689155 28.748296-116.015522 28.748296-40.322755 0-80.425146-9.937995-116.01191-28.748296C298.287956 772.011684 235.007747 675.247188 232.890821 568.75061c-50.6798 5.714979-101.225937-8.099231-142.318154-39.574966-49.946462-38.267241-78.593608-95.944458-78.593608-158.238453 0-109.838143 89.35164-199.204233 199.178946-199.204233l97.320821 0c13.257885 0 24.008693 10.750808 24.008693 24.008693s-10.750808 24.008693-24.008693 24.008693l-97.320821 0c-83.347661 0-151.157948 67.821125-151.157948 151.183236 0 47.22986 21.787003 91.009779 59.779694 120.115713 37.34244 28.600183 85.059987 37.924053 130.920708 25.562069 0.733338-0.198688 1.466676-0.357638 2.243364-0.509363 7.355055-1.560601 15.049686 0.4046 20.75744 5.357341 5.834192 5.068341 8.868694 12.632922 8.160643 20.331165-0.6647 7.196105-1.000663 14.406661-1.000663 21.443816 0 90.139166 53.027926 172.536739 135.093149 209.915304 0.451563 0.205913 0.895901 0.426275 1.329401 0.657475 28.831384 15.353136 61.372807 23.466817 94.105694 23.466817 32.736499 0 65.27431-8.113681 94.105694-23.466817 0.437113-0.2312 0.877838-0.451563 1.336626-0.657475 82.068835-37.378565 135.093149-119.776138 135.093149-209.915304 0-7.011868-0.339575-14.229648-1.004276-21.443816-0.708051-7.691018 2.322839-15.251986 8.142581-20.320327 5.696917-4.956354 13.377097-6.932393 20.750215-5.379016 0.762238 0.1445 1.517251 0.310675 2.261427 0.516588 45.864334 12.361984 93.585494 3.048952 130.927933-25.558456 37.989078-29.109546 59.779694-72.889466 59.779694-120.119325 0-83.358499-67.810287-151.183236-151.154336-151.183236l-97.324434 0c-13.257885 0-24.008693-10.750808-24.008693-24.008693s10.75442-24.008693 24.008693-24.008693l97.324434 0c109.823693 0 199.171721 89.362478 199.171721 199.204233C1010.799915 433.231186 982.156382 490.904791 932.206308 529.175644zM526.496973 463.522021c-0.928413 0.928413-1.939914 1.748451-3.005602 2.485402-0.061413 0.04335-0.1156 0.090313-0.177013 0.13005-0.364863 0.24565-0.747788 0.4624-1.127101 0.682763-0.227588 0.133663-0.440725 0.278163-0.675538 0.400988-0.289 0.155338-0.59245 0.285388-0.892288 0.429888-0.33235 0.15895-0.661088 0.328738-1.000663 0.473238-0.24565 0.10115-0.502138 0.180625-0.751401 0.27455-0.400988 0.151725-0.805588 0.310675-1.217413 0.437113-0.252875 0.075863-0.516588 0.13005-0.769463 0.198688-0.41905 0.111988-0.830876 0.227588-1.260763 0.314288-0.368475 0.075863-0.744176 0.1156-1.119876 0.169788-0.321513 0.046963-0.639413 0.111988-0.964538 0.1445-0.708051 0.07225-1.419714 0.108375-2.138602 0.108375 0 0-0.003613 0-0.003613 0-0.003613 0-0.003613 0-0.007225 0-0.213138 0-0.41905-0.025288-0.632188-0.032513-0.494913-0.01445-0.989826-0.025288-1.481126-0.075863-5.118916-0.502138-9.703182-2.817752-13.109772-6.289367l-136.9283-136.935525c-8.334044-8.330431-8.334044-21.848416 0-30.178847 8.330431-8.341269 21.844803-8.341269 30.18246 0l100.622649 100.622649 0-453.835095c0-11.787596 9.555069-21.339053 21.342666-21.339053 11.791209 0 21.342666 9.555069 21.342666 21.339053L532.724928 396.911084l100.622649-100.644324c4.168828-4.172441 9.630932-6.253242 15.096649-6.253242 5.458491 0 10.920595 2.080802 15.089424 6.246017 8.341269 8.337656 8.341269 21.848416 0.007225 30.18246L526.496973 463.522021z"  horiz-adv-x="1024" />

    
    <glyph glyph-name="shipin" unicode="&#59191;" d="M675.718247 106.399541 127.257847 106.399541c-35.830043 0-64.979944 29.1499-64.979944 64.979944L62.277904 534.119019c0 35.830043 29.1499 64.979944 64.979944 64.979944l548.4604 0c35.830043 0 64.979944-29.1499 64.979944-64.979944l0-362.739535C740.698191 135.549441 711.54829 106.399541 675.718247 106.399541zM127.257847 553.050184c-10.438747 0-18.931165-8.492418-18.931165-18.931165l0-362.739535c0-10.438747 8.492418-18.931165 18.931165-18.931165l548.4604 0c10.438747 0 18.931165 8.492418 18.931165 18.931165L694.649412 534.119019c0 10.438747-8.492418 18.931165-18.931165 18.931165L127.257847 553.050184zM938.696684 130.956843c-4.103458 0-8.202822 1.094938-11.844769 3.28072L705.831079 266.83758c-10.904351 6.541997-14.439874 20.685111-7.898901 31.588439 6.540973 10.903328 20.684088 14.44192 31.588439 7.898901l186.151677-111.680569L915.672294 499.130134 729.284233 390.293333c-10.983145-6.412037-25.082258-2.707668-31.492248 8.272407-6.41306 10.981099-2.707668 25.081235 8.272407 31.493272l221.022882 129.060401c7.120165 4.157693 15.921621 4.190439 23.073508 0.084934 7.150864-4.105504 11.561313-11.721973 11.561313-19.967774l0-385.256364c0-8.293897-4.461615-15.948227-11.680017-20.035312C946.51986 131.950474 942.60776 130.956843 938.696684 130.956843z"  horiz-adv-x="1024" />

    
    <glyph glyph-name="zhuanfa-copy" unicode="&#58883;" d="M769.003 26.668h-514.003c-56.669 0-102.403 46.231-102.403 102.403v424.526c0 56.669 46.231 102.403 102.403 102.403h189.396c10.937 0 19.884-8.948 19.884-19.884s-8.948-19.884-19.884-19.884h-189.396c-34.797 0-62.636-28.334-62.636-62.636v-424.526c0-34.797 28.334-62.636 62.636-62.636h514.003c34.797 0 62.636 28.334 62.636 62.636v105.883c0 10.937 8.948 19.884 19.884 19.884s19.884-8.948 19.884-19.884v-105.883c0-56.669-45.733-102.403-102.403-102.403zM431.469 200.653c-4.971 0-9.942 1.987-13.92 5.966-7.954 7.954-7.954 20.382 0 28.334l402.156 402.156c7.954 7.954 20.382 7.954 28.334 0 7.954-7.954 7.954-20.382 0-28.334l-402.156-402.156c-4.474-3.977-9.444-5.966-14.416-5.966zM849.532 614.243h-234.135c-10.937 0-19.884 8.948-19.884 19.884s8.948 19.884 19.884 19.884h234.135c10.937 0 19.884-8.948 19.884-19.884s-8.948-19.884-19.884-19.884zM849.532 380.108c-10.937 0-19.884 8.948-19.884 19.884v234.135c0 10.937 8.948 19.884 19.884 19.884s19.884-8.948 19.884-19.884v-234.135c0-10.937-8.948-19.884-19.884-19.884z"  horiz-adv-x="1024" />

    
    <glyph glyph-name="fensi" unicode="&#58973;" d="M961.558879 102.061746c0-12.453636-10.099009-22.553669-22.553669-22.553669-12.45466 0-22.554692 10.099009-22.554692 22.553669 0 107.051131-74.764797 196.2118-174.801165 219.302705l0 1.119497c-13.366426 4.136204-23.258727 16.131399-23.258727 30.854728 0 16.045441 11.745509 28.77537 26.970258 31.604812 47.425126 21.034059 80.869842 67.890226 80.869842 123.109876 0 74.743308-60.587913 135.330198-135.330198 135.330198l0 0.283456c-11.764951 0.766456-21.142529 10.311857-21.142529 22.270213s9.377578 21.50478 21.142529 22.271236l0 0.283456c0.320295 0 0.618077-0.095167 0.939395-0.095167 0.166799 0.005117 0.306992 0.095167 0.468674 0.095167 0.50142 0 0.915859-0.252757 1.407046-0.283456 98.321306-1.543146 177.62549-81.464383 177.62549-180.157149 0-64.946174-34.618449-121.398908-86.1061-153.179728C888.006699 316.478164 961.559902 218.225419 961.558879 102.061746L961.558879 102.061746 961.558879 102.061746zM62.441121 102.061746l-0.001023 0c0 116.163673 73.553203 214.417441 176.325891 252.810866-51.487651 31.780821-86.1061 88.234577-86.1061 153.179728 0 98.691743 79.304184 178.61298 177.62549 180.157149 0.491187 0.030699 0.905626 0.283456 1.407046 0.283456 0.162706 0 0.302899-0.090051 0.468674-0.095167 0.320295 0 0.618077 0.095167 0.939395 0.095167l0-0.283456c11.765975-0.766456 21.142529-10.31288 21.142529-22.271236s-9.377578-21.503756-21.142529-22.270213l0-0.283456c-74.743308 0-135.330198-60.587913-135.330198-135.330198 0-55.219649 33.444716-102.07684 80.869842-123.109876 15.22475-2.829442 26.970258-15.558347 26.970258-31.604812 0-14.724353-9.892301-26.718525-23.258727-30.854728l0-1.119497c-100.036367-23.090904-174.801165-112.251573-174.801165-219.302705 0-12.45466-10.100032-22.553669-22.554692-22.553669C72.54013 79.507054 62.441121 89.607086 62.441121 102.061746L62.441121 102.061746zM606.333482 354.871589l0.00307 0c51.487651 31.780821 86.1061 88.2356 86.105077 153.180751 0 99.653651-80.786954 180.440605-180.440605 180.440605s-180.440605-80.786954-180.440605-180.440605c0-64.946174 34.618449-121.401977 86.107123-153.180751C314.891783 316.478164 241.339604 218.225419 241.339604 102.061746c0-12.45466 10.100032-22.553669 22.554692-22.553669 12.45466 0 22.554692 10.100032 22.554692 22.553669 0 124.567064 100.981902 225.551012 225.549989 225.551012 124.567064 0 225.549989-100.984972 225.549989-225.551012 0-12.45466 10.099009-22.553669 22.554692-22.553669 12.455683 0 22.554692 10.100032 22.554692 22.553669C782.659373 218.225419 709.107193 316.478164 606.333482 354.871589zM511.998977 372.721119c-74.743308 0-135.330198 60.587913-135.330198 135.330198 0 74.743308 60.587913 135.330198 135.330198 135.330198s135.330198-60.58689 135.330198-135.330198C647.329175 433.308009 586.741261 372.721119 511.998977 372.721119z"  horiz-adv-x="1024" />

    
    <glyph glyph-name="shouyeshouye" unicode="&#58880;" d="M1009.302 375.645l-501.053 468.483-501.053-467.107c-9.802-9.138-10.348-24.507-1.188-34.299 9.151-9.786 24.538-10.338 34.333-1.179l467.871 436.154 467.892-437.482c4.694-4.386 10.653-6.555 16.601-6.555 6.475 0 12.954 2.572 17.731 7.69 9.169 9.786 8.665 25.139-1.134 34.292v0zM1009.302 375.645zM856.405 366.022c-13.411 0-24.29-10.873-24.29-24.267v-372.095h-194.331v258.848h-259.104v-258.848h-194.324v372.095c0 13.394-10.868 24.267-24.289 24.267-13.429 0-24.295-10.873-24.295-24.267v-420.627h291.493v258.847h161.94v-258.847h291.486v420.627c0.001 13.394-10.881 24.267-24.286 24.267v0zM856.405 366.022zM686.37 713.847h145.744v-129.421c0-13.414 10.881-24.272 24.29-24.272 13.407 0 24.287 10.858 24.287 24.272v177.953h-194.322c-13.414 0-24.295-10.852-24.295-24.267-0.001-13.41 10.881-24.267 24.295-24.267v0zM686.37 713.847z"  horiz-adv-x="1024" />

    
    <glyph glyph-name="DIYshougongfang" unicode="&#59185;" d="M1077.020356 114.781135c-14.96699-23.619515-68.89594-54.935851-95.331365-72.32623-36.026586-23.704845-68.964205-41.402415-104.171617-61.489243-75.893051-43.279689-143.25304-86.06446-227.747417-104.888394-59.25358-13.192113-126.47704 8.567194-180.0988 23.517118-97.259837 27.101004-187.420167 63.810235-307.190221 65.090194-18.636207 0.204793-68.179163 0-91.815744 0-30.599559 0-69.271395-4.300663-70.619619 21.708109-1.484753 28.79055 31.794188 25.326127 67.086931 25.326127 34.541834 0 69.254329 0.716777 91.815744 0 116.595755-3.754547 206.022242-38.808365 301.899723-65.10726 50.037874-13.738229 114.24063-33.961586 167.725861-27.135137 45.720145 5.85368 91.406157 30.633691 128.883364 48.826179 81.081152 39.354481 150.898663 80.261978 226.006672 130.214522 32.254973 21.452117 83.897063 56.830191 51.19837 106.697403-100.655996-26.162367-214.845427-57.888291-323.095848-86.815369-35.599933-9.505831-75.329869-27.11807-109.462115-27.11807-20.888935 0-37.989191 11.161245-58.263746 18.073024-38.586505 13.157981-75.773588 22.390754-116.52749 36.180182-23.585383 7.96988-39.354481 22.885671-28.244434 41.590143 12.287609 20.701208 84.477311-10.632195 102.39674-16.281082 16.929594-5.341697 36.487372-13.328642 51.19837-18.073025 17.441578-5.631821 36.316711-15.632569 52.956181-14.472072 22.40782 1.570083 46.351591 23.568316 40.617374 56.062215-5.256366 29.797451-48.126468 46.863575-67.086931 57.854158-56.710728 32.903486-102.174881 59.219448-157.127799 92.242397-52.205271 31.350469-113.71158 81.251813-201.277859 56.045149-47.904608-13.772362-115.29873-54.952917-157.127798-81.371276-13.465171-8.481863-27.578855-31.760056-45.924938-28.927079-8.737855 1.348224-16.810132 12.867857-17.646372 19.882034-2.491654 21.144927 27.066872 31.930717 45.907872 45.20816a610.148044 610.148044 0 0 0 54.731058 34.371173c51.11304 27.920178 87.822271 58.468539 141.239237 63.281186 23.039267 2.082067 66.318956 2.628183 90.040867-3.618019 29.677989-7.782152 58.519737-31.248072 88.283057-48.826179 58.383208-34.473569 111.305257-65.721641 171.258548-101.25331 51.898081-30.787287 111.015133-50.635188 98.864053-137.450558 77.958052 18.380215 176.719708 47.085434 264.832103 70.534288 27.561789 7.338433 64.783004 25.786912 93.573554 18.073025 47.341426-12.663064 54.816388-93.658885 28.244434-135.624483zM822.786316 650.060096c-53.775355 24.268027-95.604423 106.031825-60.038622 177.231691 15.598437 31.196874 50.618122 60.584738 98.881119 68.708213h24.711747c54.202008-8.823186 86.661775-39.388613 102.413806-75.944249 46.70998-108.455214-60.61887-217.524809-165.96805-169.995655zM863.386624 847.190887c-46.317459-6.485127-69.595651-40.293117-68.844742-81.388342 1.723678-95.775084 131.170224-119.78712 157.127798-21.691043 16.741867 65.32912-37.238281 110.195959-88.283056 103.079385zM792.767005 521.671649c87.156692 10.017814 153.50978-65.32912 135.948739-153.714573-25.582119-128.746835-210.135177-131.596877-243.635977-7.236036-18.909265 70.158833 23.824308 129.20762 65.32912 150.096555 10.802856 5.444093 27.612988 9.164508 42.358118 10.854054z m-63.554243-103.079385c-31.282204-123.302742 156.598748-141.597626 157.127798-23.517118 0.255992 55.550232-42.341052 88.521982-93.573555 79.579333-37.886794-6.621656-56.403538-27.851913-63.554243-56.062215z m-298.384102 162.759619c0 72.2409 47.426757 119.036211 112.994803 126.579437 74.869083 8.601326 141.819485-50.327998 137.723616-133.815473-1.518885-30.616625-16.008024-62.479078-33.551999-81.371277-75.039745-80.893425-217.16642-25.991706-217.16642 88.607313z m113.011869 79.562267c-40.173654-6.007275-65.568046-34.405305-67.103997-75.944249-1.621282-44.115929 29.916914-83.077889 75.927183-85.006361 114.325961-4.778515 106.321949 178.153262-8.823186 160.95061z"  horiz-adv-x="1092" />

    
    <glyph glyph-name="shoushijiaocheng" unicode="&#58891;" d="M796.612 488.118h-2.226c-16.405 0-29.86-4.811-42.814-13.03-11.35 33.862-40.207 58.248-77.372 58.248-16.401 0-32.086-4.814-45.036-13.03-11.356 33.859-40.21 58.248-77.407 58.248-14.488 0-27.975-3.723-39.895-10.241v87.132c0 47.461-35.094 85.907-81.796 85.907s-84.588-38.476-84.588-85.907v-333.564l-51.34 52.344c-33.028 33.57-91.492 28.786-119.624 0-28.133-28.785-46.575-86.679-6.302-127.917l236.231-240.105c4.86-4.946 10.224-9.084 15.867-12.583 43.065-35.943 92.43-57.22 196.78-57.22 238.39 0 260.473 131.608 260.473 293.93V402.18c-0.03 47.461-34.218 85.937-80.95 85.937m36.38-257.76c0-137.351-0.624-248.709-215.938-248.709-91.206 0-145.964 20.798-187.46 62.966L205.971 271.918c-19.788 20.252-14.801 46.115 1.38 62.708 16.186 16.557 45.92 17.137 61.569 1.251 0 0 39.235-39.888 73.045-74.292a66061.716 66061.716 0 0 1 48.052-48.875V646.394c0 22.467 17.936 40.692 40.08 40.692s37.261-18.225 37.261-40.692v-275.856h0.44a23.54 23.54 0 0 1-0.44-4.526c0-12.483 9.973-22.624 22.267-22.624 12.294 0 22.268 10.107 22.268 22.624 0 1.542-0.158 3.05-0.44 4.526h0.44V483.595c0 22.464 15.996 40.692 38.14 40.692 0 0 39.205 0.547 39.205-40.692v-149.222h0.436a23.938 23.938 0 0 1-0.436-4.53c0-12.484 9.973-22.625 22.267-22.625 12.294 0 22.267 10.11 22.267 22.625 0 1.538-0.154 3.049-0.44 4.53h0.44V438.377c0 22.464 15.746 40.692 37.89 40.692 0 0 40.019-2.568 40.019-40.692v-131.159h0.44a23.532 23.532 0 0 1-0.44-4.523c0-12.483 9.973-22.624 22.267-22.624 12.294 0 21.704 10.107 21.704 22.624 0 1.538-0.157 3.05-0.408 4.523h0.408v89.536c0 22.467 16.498 40.692 38.642 40.692 0 0 38.797 1.608 38.797-40.692v-166.396h-0.097M312.45 527.337v75.96c-7.058 16.207-11.072 34.147-11.072 53.014 0 72.012 57.052 130.387 127.432 130.387s127.43-58.375 127.43-130.387c0-9.822-1.13-19.382-3.17-28.593 16.03-0.643 30.488-7.446 41.025-18.39 4.08 14.956 6.494 30.65 6.494 46.952 0 97.043-76.906 175.735-171.748 175.735-94.846 0-171.748-78.692-171.748-175.735-0.03-51.028 21.359-96.85 55.357-128.943m0 0"  horiz-adv-x="1024" />

    


  </font>
</defs>
</svg>
